<svg width="207" height="206" viewBox="0 0 207 206" fill="none" xmlns="http://www.w3.org/2000/svg">
<g clip-path="url(#clip0_1586_25663)">
<g clip-path="url(#clip1_1586_25663)">
<path d="M75.4035 119.831C74.9544 120.087 74.4498 119.972 73.9031 119.575C69.3906 119.856 60.2565 126.908 56.4149 130.137C54.2434 131.961 52.8045 135.312 51.2276 137.704C49.8102 139.855 48.3326 141.952 46.9049 144.094C44.785 147.276 42.5334 149.093 39.7003 151.628C32.6753 157.914 24.0103 161.618 14.8846 161.618C13.8121 161.618 6.04706 161.084 6.04706 159.465C6.04706 157.309 7.55774 154.443 8.28848 152.469C13.907 137.294 17.1607 122.946 30.9766 114.805C31.3921 114.56 38.5099 111.376 38.5099 110.584C38.5099 106.628 21.9279 99.8833 19.2394 98.0502C14.0936 94.5416 8.33699 91.8897 4.86191 86.3184C3.85751 85.8076 -1.41588 73.9215 0.593025 56.2495C8.27155 56.2495 24.768 64.532 28.2151 69.4376C31.7733 74.5012 38.9262 80.9356 42.7795 85.8076C46.7961 90.886 51.2276 96.0776 60.6084 101.089C63.9896 99.723 70.0134 116.757 73.9031 119.575C74.4881 119.539 74.9955 119.616 75.4035 119.831Z" fill="#53A385"/>
<path d="M81.4564 49.0561C86.1418 35.9454 119.02 53.3908 134.873 63.7524L79.2365 71.2229C78.0242 69.2967 76.7709 62.1667 81.4564 49.0561Z" fill="#53A385"/>
<path d="M82.2378 162.268C87.6111 174.904 119.151 155.334 134.249 143.969L78.7934 140.502C77.7026 142.492 76.8645 149.632 82.2378 162.268Z" fill="#53A385"/>
<path d="M170.576 72.8568C177.009 80.1456 183.984 86.7547 190.465 94.0019C202.484 111.237 191.095 128.773 186.919 134.585C184.757 136.523 179.109 142.441 175.519 144.295C171.929 146.15 168.484 148.406 164.925 150.347C150.169 158.395 133.167 158.134 117.348 157.412C113.251 157.225 108.966 155.569 105.021 154.3C98.9968 152.362 92.3512 151.621 86.4912 149.01C79.4544 147.682 74.6038 143.835 67.9596 140.874C62.0476 138.239 55.1174 134.079 49.4693 130.536C47.2826 129.165 41.5523 128.1 38.1229 125.969C33.5987 124.225 39.0474 122.508 39.0474 119.02C39.0474 114.564 36.5568 106.788 41.5523 105.423C43.924 104.279 47.2279 101.138 49.4693 99.6113C53.0243 97.1905 58.6942 88.763 58.6942 88.763C64.8379 81.2971 71.5121 75.4663 78.8501 69.7443C82.3343 67.0274 86.3124 65.1008 89.9958 62.8277C95.1197 59.6658 100.68 57.0356 106.301 55.7135C112.282 54.3068 118.241 54.2808 124.3 54.2808C130.605 54.2808 136.631 54.4087 142.771 56.504C148.08 58.316 153.203 61.2352 158.17 64.1617C162.224 66.5504 167.22 69.0543 170.576 72.8568Z" fill="#53A385"/>
<path d="M143.498 75.6956C141.287 75.6956 139.097 75.5966 136.909 75.2023C135.742 74.9919 133.968 74.6523 133.034 75.6956C131.529 77.3781 131.726 81.0904 131.726 83.277C131.726 86.4921 133.824 88.5191 135.912 90.4931C137.823 92.3 140.29 93.5013 142.566 94.6035C145.251 95.9036 141.343 95.4256 140.424 95.4256C137.825 95.4256 135.099 95.4905 132.642 96.5582C131.048 97.2508 131.636 101.018 131.857 102.514C132.207 104.879 133.347 106.674 135.356 107.592C137.004 108.346 139.537 109.48 141.373 109.565C141.71 109.581 140.697 109.564 140.359 109.584C138.771 109.675 137.25 110.226 135.732 110.716C134.31 111.175 131.798 112.254 131.138 113.913C129.305 118.522 131.03 122.784 134.539 125.349C136.326 126.657 138.121 127.874 140.261 128.309C141.352 128.531 142.393 129.295 143.498 129.295" stroke="white" stroke-width="6.62478" stroke-linecap="round"/>
<path d="M94.1659 80.0025C91.9551 80.0025 89.7647 79.9051 87.577 79.5171C86.4092 79.31 84.6358 78.9757 83.7021 80.0025C82.1963 81.6583 82.3941 85.3116 82.3941 87.4636C82.3941 90.6276 84.4918 92.6225 86.5796 94.5651C88.4907 96.3433 90.9576 97.5256 93.234 98.6103C95.919 99.8897 92.0109 99.4193 91.0922 99.4193C88.4931 99.4193 85.767 99.4831 83.3097 100.534C81.7159 101.216 82.304 104.923 82.5249 106.395C82.8743 108.722 84.0147 110.489 86.0237 111.393C87.672 112.134 90.2047 113.251 92.0404 113.335C92.3781 113.35 91.3643 113.334 91.0268 113.353C89.4387 113.442 87.9181 113.985 86.3998 114.467C84.978 114.919 82.4656 115.98 81.8055 117.614C79.9723 122.149 81.6979 126.343 85.2063 128.868C86.9935 130.155 88.7886 131.353 90.9287 131.781C92.0201 131.999 93.0602 132.752 94.1659 132.752" stroke="white" stroke-width="6.62478" stroke-linecap="round"/>
<path d="M123.446 72.4496C120.585 72.4496 117.751 72.3239 114.92 71.8232C113.408 71.556 111.113 71.1247 109.905 72.4496C107.956 74.5862 108.212 79.3001 108.212 82.0768C108.212 86.1594 110.927 88.7334 113.629 91.2401C116.102 93.5345 119.294 95.06 122.24 96.4597C125.715 98.1105 120.658 97.5036 119.469 97.5036C116.105 97.5036 112.577 97.5859 109.397 98.9419C107.335 99.8213 108.096 104.606 108.382 106.504C108.834 109.508 110.309 111.787 112.909 112.954C115.043 113.91 118.32 115.35 120.696 115.459C121.133 115.479 119.821 115.458 119.384 115.482C117.329 115.598 115.361 116.298 113.396 116.92C111.556 117.503 108.305 118.873 107.451 120.98C105.078 126.833 107.311 132.244 111.852 135.502C114.164 137.162 116.487 138.708 119.257 139.26C120.669 139.542 122.016 140.513 123.446 140.513" stroke="white" stroke-width="6.62478" stroke-linecap="round"/>
</g>
</g>
<defs>
<clipPath id="clip0_1586_25663">
<rect width="205.979" height="205.979" fill="white" transform="translate(0.145508)"/>
</clipPath>
<clipPath id="clip1_1586_25663">
<rect width="205.979" height="205.979" fill="white" transform="translate(-10.1534)"/>
</clipPath>
</defs>
</svg>
