<svg width="207" height="206" viewBox="0 0 207 206" fill="none" xmlns="http://www.w3.org/2000/svg">
<g clip-path="url(#clip0_1586_25759)">
<circle cx="103.507" cy="108.139" r="97.8402" fill="#67B2F7"/>
<g clip-path="url(#clip1_1586_25759)">
<path fill-rule="evenodd" clip-rule="evenodd" d="M70.4181 120.179C70.5182 113.434 70.5182 100.158 70.507 93.5085C70.4959 86.8593 70.4737 86.838 69.8609 85.8215C69.2471 84.8038 68.0439 82.7911 67.4078 81.5919C66.7728 80.3928 66.705 80.0073 67.4411 78.7548C68.1773 77.5023 69.7153 75.3816 70.6416 74.3224C71.5668 73.2621 71.8793 73.2621 73.0392 74.537C74.199 75.8109 76.2051 78.3597 77.544 80.1792C78.8818 81.9988 79.5513 83.0911 79.5735 83.8621C79.5958 84.633 78.9719 85.0825 78.2246 85.672C77.4773 86.2603 76.6077 86.9885 76.1729 87.4061C75.7381 87.8236 75.7381 87.9303 75.7826 93.8513C75.827 99.7722 75.916 111.506 75.6491 118.466C75.3811 125.426 74.7573 127.61 73.2972 130.083C71.837 132.556 69.5396 135.318 66.9085 137.449C64.2774 139.579 61.3116 141.079 58.0889 141.721C42.1055 144.908 29.7374 132.902 37.9298 119.185C39.2787 116.925 41.3526 115.041 42.4013 114.131C43.4488 113.221 43.4722 113.285 43.2598 114.024C43.0474 114.763 42.6015 116.176 42.3123 118.232C42.0221 120.288 41.8887 122.986 42.0788 125.009C42.9696 134.516 53.6351 134.749 61.1225 132.408C63.5201 131.659 65.683 130.566 67.1098 129.667C68.5365 128.768 69.2282 128.061 69.6741 127.601C70.1201 127.141 70.3202 126.926 70.4214 120.181L70.4181 120.179Z" fill="white"/>
<path fill-rule="evenodd" clip-rule="evenodd" d="M106.951 114.911C111.427 106.464 113.749 96.1726 117.13 87.1594C118.078 84.633 118.346 84.4397 118.758 84.5251C119.171 84.6106 119.728 84.9747 120.152 85.9069C121.644 89.1882 121.342 108.165 121.702 113.187C122.159 119.579 123.029 123.883 124.01 126.571C126.682 133.887 137.536 132.307 144.046 131.624C146.599 131.356 148.026 130.992 148.918 130.672C149.81 130.351 150.167 130.072 150.401 129.622C150.635 129.173 150.747 128.551 149.621 127.524C148.494 126.496 146.131 125.062 143.89 124.162C141.65 123.263 139.531 122.898 137.123 123.091C134.714 123.283 132.016 124.032 130.355 124.579C128.693 125.125 128.069 125.468 127.757 125.564C127.444 125.66 127.444 125.51 127.913 124.386C128.381 123.261 129.317 121.163 130.577 119.461C131.837 117.759 133.421 116.452 134.992 115.585C136.564 114.718 138.126 114.29 139.954 114.365C141.782 114.439 143.878 115.018 145.874 116.141C147.87 117.266 149.765 118.936 151.717 120.242C153.669 121.548 155.675 122.491 157.549 123.251C159.421 124.011 161.16 124.589 162.99 124.953C164.818 125.317 166.736 125.466 168.353 125.466C169.97 125.466 171.286 125.317 171.988 125.445C172.691 125.573 172.78 125.98 172.636 127.319C172.491 128.657 172.111 130.927 171.788 132.212C171.465 133.496 171.198 133.796 170.339 133.914C169.481 134.031 168.031 133.967 165.433 133.935C162.835 133.903 159.089 133.903 156.524 134.203C153.96 134.503 152.578 135.102 151.217 135.927C137.193 144.425 118.912 145.753 116.574 125.852C116.162 122.34 115.916 118.485 115.782 116.109C115.649 113.732 115.627 112.833 115.503 112.459C115.381 112.084 115.157 112.233 114.556 113.786C113.954 115.338 112.972 118.293 111.379 121.57C105.548 133.55 95.0351 142.407 80.4829 141.849C77.695 141.742 74.9083 141.035 73.3025 140.532C71.6967 140.029 71.273 139.729 71.1284 139.558C70.9839 139.387 71.1173 139.344 72.4885 138.991C73.8596 138.638 76.4685 137.975 78.6881 137.289C91.0384 133.475 101.001 126.145 106.953 114.912L106.951 114.911Z" fill="white"/>
<path fill-rule="evenodd" clip-rule="evenodd" d="M83.3934 99.4721C83.5046 91.9132 83.5602 88.1343 83.5602 88.1343C94.5617 93.5512 101.294 104.601 100.82 116.464C97.1294 109.105 90.9998 103.128 83.3934 99.4721Z" fill="white"/>
</g>
</g>
<defs>
<clipPath id="clip0_1586_25759">
<rect width="205.979" height="205.979" fill="white" transform="translate(0.515625)"/>
</clipPath>
<clipPath id="clip1_1586_25759">
<rect width="137.372" height="68.6858" fill="white" transform="translate(35.3172 73.551)"/>
</clipPath>
</defs>
</svg>
