<svg width="207" height="206" viewBox="0 0 207 206" fill="none" xmlns="http://www.w3.org/2000/svg">
<path d="M123.404 41.9884C125.679 47.6146 129.665 59.6381 127.4 62.7221" stroke="white" stroke-width="3.08969" stroke-linecap="round"/>
<path d="M108.58 73.6771C110.06 79.4614 112.386 91.6337 109.85 94.0476" stroke="white" stroke-width="3.08969" stroke-linecap="round"/>
<path d="M69.1225 41.9881C65.6915 49.893 59.5587 67.2406 62.4751 73.3914" stroke="white" stroke-width="3.08969" stroke-linecap="round"/>
<path d="M144.175 136.959C147.342 145.944 152.007 165.317 145.331 170.936" stroke="white" stroke-width="3.08969" stroke-linecap="round"/>
<path d="M114.553 168.745C115.158 173.658 115.337 184.126 111.209 186.692" stroke="white" stroke-width="3.08969" stroke-linecap="round"/>
<path d="M62.9124 148.439C60.7665 145.815 61.0012 141.713 63.6166 139.56C66.2319 137.408 70.3225 137.644 72.4684 140.267L86.5844 156.779V142.385L73.8767 127.286C71.7308 124.663 71.9655 120.56 74.5808 118.408C77.1961 116.256 81.2867 116.491 83.4326 119.114L86.7856 122.948V112.893L79.845 104.99C77.6991 102.367 77.9338 98.2641 80.5491 96.1119C82.4603 94.6658 84.8409 94.195 86.7521 95.1366V73.076C86.7521 71.1592 87.4562 69.9486 88.6298 68.7715C91.0104 66.3839 95.0675 66.1149 97.7163 68.7715C98.9234 69.9822 99.6275 71.6636 99.6275 73.076V95.1366C101.807 94.3968 104.188 94.9012 105.864 96.0783C108.513 98.2305 108.748 102.3 106.602 104.956L99.6946 112.893V122.948L102.813 118.879C105.193 115.987 109.519 115.987 112.134 118.643C114.515 121.031 114.515 124.865 112.637 127.286L99.7616 142.654V157.048L113.609 140.233C115.99 137.341 120.315 137.341 122.931 139.998C125.311 142.385 125.345 146.219 123.434 148.64L99.5605 176.485V203.321C114.179 200.664 126.585 190.105 126.351 175.947C126.351 174.972 127.29 174.03 128.497 173.795C143.317 173.795 155.253 161.789 154.985 147.161C154.985 141.881 153.543 137.106 150.894 133.036C150.425 132.061 150.66 130.884 151.364 130.144C169.503 115.751 169.973 87.94 152.001 73.3114C151.297 72.6052 151.029 71.3946 151.532 70.4194C153.677 66.3503 154.885 61.7767 154.851 57.4722C154.851 42.6082 142.881 30.6363 128.295 30.9053C127.323 30.9053 126.384 29.9637 126.15 28.7531C126.15 21.5565 123.501 15.0997 118.471 10.0554C112 3.565 102.645 0.000335693 92.6198 0.000335693C74.9161 0.000335693 60.1295 11.5351 59.1906 26.3991C59.1906 27.3407 58.2518 28.3159 57.0447 28.5513C56.5753 28.5513 46.5164 28.0805 38.1675 36.4878C29.3492 45.3658 28.1421 58.5483 33.9092 68.6034C34.3786 69.5786 34.1439 70.7557 33.4398 71.4955C16.0043 86.1577 16.5073 113.464 34.211 127.824C34.9151 128.53 35.1833 129.741 34.6804 130.716C31.8304 135.021 30.6233 140.065 30.3886 145.109C30.3886 159.973 42.3587 171.945 56.9441 171.676C57.883 171.676 58.8553 172.618 59.09 173.828V175.745C59.09 182.471 61.9736 188.692 66.7684 193.468C71.7978 198.512 78.9732 201.841 86.3833 203.018V176.182L62.8789 148.405L62.9124 148.439Z" fill="#67B2F7"/>
<path d="M59.1174 125.056L84.6965 49.695L133.012 84.4769L135.855 145.345C135.855 145.345 107.616 201.056 104.227 202.186C100.838 203.315 94.0609 205.574 82.7653 202.186C71.4697 198.797 47.749 156.939 47.749 156.939L59.1174 125.056Z" fill="#67B2F7"/>
<path d="M71.7169 103.574C74.7016 106.645 82.462 114.627 89.6253 121.996" stroke="white" stroke-width="9.21106" stroke-linecap="round"/>
<path d="M98.3885 101.108C96.9675 104.128 93.2727 111.982 89.8622 119.231" stroke="white" stroke-width="9.21106" stroke-linecap="round"/>
<path d="M89.7799 88.5463C89.4448 86.0249 87.1292 84.2526 84.6078 84.5877C82.0864 84.9228 80.314 87.2384 80.6491 89.7598L89.7799 88.5463ZM80.6491 89.7598C85.1281 123.461 94.1371 193.124 94.6828 204.416L103.883 203.972C103.313 192.174 94.215 121.918 89.7799 88.5463L80.6491 89.7598Z" fill="white"/>
<path d="M59.0343 134.514C70.6854 140.839 94.0541 154.864 94.3198 160.362" stroke="white" stroke-width="9.21106" stroke-linecap="round"/>
<path d="M63.329 164.599C74.9802 170.924 97.0005 186.391 98.681 191.821" stroke="white" stroke-width="9.21106" stroke-linecap="round"/>
<path d="M123.986 128.614C114.008 137.362 95.8922 156.304 94.743 161.87" stroke="white" stroke-width="9.21106" stroke-linecap="round"/>
<path d="M128.28 158.706C118.303 167.454 98.4282 186.599 98.747 193.197" stroke="white" stroke-width="9.21106" stroke-linecap="round"/>
</svg>
