<svg width="207" height="206" viewBox="0 0 207 206" fill="none" xmlns="http://www.w3.org/2000/svg">
<g clip-path="url(#clip0_1586_25677)">
<path d="M92.5681 41.9882C94.8437 47.6144 98.8289 59.6378 96.5645 62.7219" stroke="white" stroke-width="3.08969" stroke-linecap="round"/>
<path d="M77.7434 73.6772C79.223 79.4615 81.5485 91.6338 79.0134 94.0477" stroke="white" stroke-width="3.08969" stroke-linecap="round"/>
<path d="M113.34 136.959C116.507 145.943 121.173 165.317 114.496 170.936" stroke="white" stroke-width="3.08969" stroke-linecap="round"/>
<path d="M83.7181 168.745C84.3235 173.658 84.5025 184.125 80.3746 186.692" stroke="white" stroke-width="3.08969" stroke-linecap="round"/>
<path d="M166.362 136.485C164.129 132.602 161.354 128.92 158.087 125.53C154.921 122.139 151.502 118.738 149.446 114.795C145.069 106.398 145.031 96.537 148.033 87.8492C149.61 83.3148 151.969 78.9809 154.05 74.5869C156.069 70.3634 157.582 65.9995 158.579 61.5452C160.42 53.2989 161.202 44.7315 158.97 36.4651C157.898 32.3721 155.968 28.4495 153.256 24.8581C151.099 22.2096 148.563 19.7818 145.687 17.6149C142.294 14.9765 138.699 12.4885 134.94 10.1812C131.648 8.09451 128.154 6.22855 124.483 4.58329C116.562 1.18243 107.454 -1.56635 98.5235 1.02192C94.0329 2.4565 89.9082 4.5231 86.3258 7.1214C78.6186 12.4885 71.9458 18.7184 66.5218 25.6305C60.8203 32.6529 56.5568 40.3576 53.9078 48.4434C52.6717 52.4963 51.9527 56.6295 51.7382 60.7928C51.322 65.3674 51.8644 69.9621 53.315 74.3963C54.8034 78.1182 56.5568 81.7799 58.5624 85.3513C60.7194 89.324 62.4853 93.4271 63.8729 97.6104C66.5849 106.439 66.7867 115.638 64.4784 124.536C62.0943 134.067 56.8343 142.955 54.3872 152.486C52.1166 161.515 51.7761 170.915 55.1818 179.763C58.1335 187.829 64.5036 194.841 73.2072 199.606C82.1506 204.412 92.6202 206.318 103.279 206.629C114.796 207 126.577 205.746 137.021 201.693C146.356 198.081 154.391 191.932 160.534 185.351C166.803 178.76 170.726 170.945 171.887 162.728C172.946 153.75 171.041 144.701 166.362 136.485Z" fill="#53A385"/>
<circle cx="80.4094" cy="53.644" r="10.9271" fill="white"/>
<circle cx="141.008" cy="159.924" r="10.9271" fill="white"/>
<circle cx="112.192" cy="185.762" r="10.9271" fill="white"/>
</g>
<defs>
<clipPath id="clip0_1586_25677">
<rect width="205.979" height="205.979" fill="white" transform="translate(0.103516)"/>
</clipPath>
</defs>
</svg>
