<svg width="207" height="206" viewBox="0 0 207 206" fill="none" xmlns="http://www.w3.org/2000/svg">
<g clip-path="url(#clip0_1586_25689)">
<path d="M109.244 20.9853C96.2301 21.6289 83.929 28.2204 75.5381 39.1173L58.5935 61.0888C51.5264 70.2325 48.1456 81.8396 49.1029 93.7575C49.2658 95.6217 49.5509 97.4194 49.8768 99.2392C43.5836 97.0865 34.093 95.9768 20.4884 99.2614C10.9367 101.592 0.142611 98.3515 0.0407796 98.3071C-1.26265 97.9298 -2.66792 98.2627 -3.70659 99.2392C-4.7249 100.194 -5.23405 101.658 -5.05076 103.123C-0.122149 143.493 13.1973 170.391 34.6429 183.041C61.5466 198.976 92.0754 187.058 100.202 183.352C109.957 189.766 122.054 191.786 133.745 187.769L158.876 179.135C171.3 174.852 181.605 165.02 187.124 152.148L200.505 120.967C200.77 120.367 200.892 119.724 200.892 119.102C200.892 117.571 200.179 116.106 198.876 115.307L171.463 98.0852C162.216 92.5368 152.746 92.0929 141.097 92.9585C146.535 84.4362 149.427 74.2717 149.427 63.9073C149.427 61.7546 149.304 59.5796 149.04 57.4269L144.987 23.2712C144.722 21.0297 142.93 19.3652 140.812 19.4762L109.264 20.9853H109.244ZM153.479 158.562C153.622 159.006 153.663 159.472 153.663 159.916C153.663 161.78 151.531 162.438 149.841 163.015L135.191 169.481C122.34 173.898 113.525 169.624 107.273 161.035C105.888 159.126 105.273 158.518 107.004 157.031C108.755 155.522 109.848 156.629 111.232 158.56C115.265 164.064 124.016 168.752 133.506 165.49L149.346 157.57C151.484 156.816 152.807 156.276 153.479 158.584V158.562ZM35.5007 149.65L57.7747 158.56C63.5791 160.89 69.3557 158.615 75.099 156.085L80.0488 153.61C82.0446 152.7 83.2773 152.304 84.1326 154.567C84.9677 156.809 83.9697 159.383 81.8924 160.293L77.1267 162.402C76.2306 162.801 75.3141 163.178 74.3773 163.489C67.5342 165.775 60.182 165.575 53.3797 162.868L29.0218 153.147C26.9241 152.326 25.8447 149.796 26.639 147.532C27.3925 145.246 28.9481 146.332 31.0459 147.176L35.5007 149.65ZM129.936 51.2127L130.384 56.8055C130.486 57.8707 130.527 58.936 130.527 59.9791C130.527 67.7912 128.205 75.3813 123.847 81.6621L108.185 104.211C106.861 106.141 104.316 106.541 102.564 105.054C100.792 103.611 102.443 102.083 103.808 100.153L120.142 77.8786C123.889 72.5078 125.147 63.814 124.597 57.0894L123.607 51.1497C123.403 48.7972 123.862 46.9168 126.082 46.6949C128.281 46.4952 129.753 48.7714 129.936 51.2127Z" fill="#53A385"/>
<path d="M101.332 106.976C109.087 99.3862 124.992 80.643 126.576 66.3876C128.16 52.1322 125.256 45.2685 123.606 43.6186" stroke="white" stroke-width="7.41526" stroke-linecap="round"/>
<path d="M27.5801 148.058C37.8096 153.337 59.6547 163.897 65.1985 163.897C70.7422 163.897 79.0579 157.957 82.5227 154.987" stroke="white" stroke-width="7.41526" stroke-linecap="round"/>
<path d="M104.802 157.463C107.937 163.073 117.672 173.302 131.531 169.343C145.39 165.383 152.155 159.113 153.805 156.473" stroke="white" stroke-width="7.41526" stroke-linecap="round"/>
</g>
<defs>
<clipPath id="clip0_1586_25689">
<rect width="205.979" height="205.979" fill="white" transform="translate(0.0615234)"/>
</clipPath>
</defs>
</svg>
