<svg width="206" height="206" viewBox="0 0 206 206" fill="none" xmlns="http://www.w3.org/2000/svg">
<g clip-path="url(#clip0_1586_25697)">
<path fill-rule="evenodd" clip-rule="evenodd" d="M49.7068 48.915C41.6539 52.8605 34.3104 57.1519 28.1721 61.1548C24.602 86.8068 39.0047 112.707 55.4082 132.929C63.7727 143.241 72.4684 151.843 79.0809 157.87C82.3838 160.881 85.1583 163.242 87.1 164.844C87.6784 165.322 88.1828 165.732 88.6049 166.071C89.41 165.835 90.4365 165.544 91.6371 165.23C92.1179 165.104 92.6276 164.974 93.1633 164.842C93.0075 164.644 92.8459 164.438 92.6787 164.225C90.6652 161.653 87.8385 157.944 84.5688 153.374C78.0378 144.245 69.7001 131.628 62.5467 117.744C55.4158 103.905 49.337 88.5708 47.5343 74.0528C46.4504 65.3248 46.9002 56.7264 49.7068 48.915ZM121.661 163.044C124.799 163.788 127.814 165.071 130.268 167.2C130.514 167.12 130.935 166.939 131.546 166.545C133.352 165.378 135.763 163.043 138.617 159.523C144.255 152.569 150.865 141.946 157.009 129.967C163.142 118.01 168.721 104.879 172.36 92.9708C176.058 80.8731 177.543 70.6918 176.157 64.2973C176.118 64.1191 176.077 63.9416 176.034 63.7648C166.394 55.7616 157.623 48.5657 145.228 43.2236C145.997 47.5066 146.254 52.308 146.149 57.3894C145.864 71.1467 142.891 87.8265 139.128 103.805C135.353 119.828 130.735 135.345 127.065 146.842C125.229 152.595 123.628 157.351 122.485 160.671C122.175 161.57 121.899 162.364 121.661 163.044ZM60.6871 43.9697C76.2881 37.5709 93.5145 33.2365 109.386 34.7794C120.232 35.8336 129.09 37.6373 136.644 40.0319C136.755 40.3579 136.862 40.6954 136.965 41.0446C138.206 45.2542 138.721 50.745 138.586 57.2327C138.318 70.1897 135.489 86.2577 131.765 102.07C128.051 117.837 123.494 133.154 119.859 144.543C118.043 150.233 116.46 154.933 115.333 158.208C114.956 159.303 114.63 160.238 114.363 160.998L100.513 161.929C100.02 161.317 99.3872 160.522 98.635 159.561C96.6784 157.062 93.9183 153.441 90.721 148.972C84.318 140.023 76.2009 127.729 69.2711 114.28C62.3188 100.787 56.686 86.3666 55.0411 73.1206C53.6561 61.9671 55.1227 51.9775 60.6871 43.9697ZM16.7602 69.283C17.7788 68.4783 18.8948 67.6267 20.1004 66.738C19.131 93.3163 34.1537 118.735 49.5334 137.695C58.2015 148.381 67.1808 157.259 73.985 163.461C77.3905 166.565 80.2599 169.007 82.2849 170.679C83.2976 171.514 84.0997 172.158 84.6529 172.596C84.9295 172.815 85.1439 172.982 85.2913 173.097L85.4081 173.187L85.4616 173.228L85.508 173.264L85.5212 173.274L85.5254 173.277C85.5267 173.278 85.5278 173.279 87.8206 170.271L85.5278 173.279L87.1189 174.492L89.0151 173.86L89.0156 173.86L89.0163 173.859L89.0167 173.859L89.0265 173.856L89.078 173.839C89.126 173.823 89.2011 173.799 89.3018 173.767C89.5032 173.703 89.8068 173.608 90.201 173.489C90.9897 173.251 92.1384 172.918 93.5536 172.548C96.3926 171.804 100.264 170.918 104.432 170.33C108.625 169.739 112.975 169.471 116.817 169.885C120.717 170.306 123.642 171.38 125.473 173.059C127.03 174.486 128.962 174.989 130.867 174.777C132.615 174.582 134.242 173.808 135.651 172.899C138.471 171.077 141.482 168 144.492 164.288C150.581 156.778 157.464 145.655 163.74 133.42C170.027 121.162 175.795 107.611 179.594 95.1818C182.291 86.3588 184.106 77.7589 184.223 70.4844C185.479 71.4895 186.765 72.5021 188.089 73.5203C206.977 88.0482 200.802 113.472 195.354 124.368C185.264 135.465 160.119 161.777 140.262 178.242C120.405 194.707 99.7 191.559 91.8297 187.927C72.2552 177.838 29.1104 149.913 13.1278 118.92C-2.85486 87.9271 8.88996 72.915 16.7602 69.283Z" fill="#53A385"/>
<path d="M77.5464 183.671C88.751 169.511 117.125 149.688 140.986 183.671" stroke="white" stroke-width="7.56455" stroke-linecap="round"/>
</g>
<defs>
<clipPath id="clip0_1586_25697">
<rect width="205.979" height="205.979" fill="white" transform="translate(0.0195312)"/>
</clipPath>
</defs>
</svg>
