<svg width="207" height="206" viewBox="0 0 207 206" fill="none" xmlns="http://www.w3.org/2000/svg">
<g clip-path="url(#clip0_1586_25709)">
<path d="M132.158 28.8458C132.158 28.8458 83.643 21.9877 84.7713 73.4145C60.4015 77.0726 50.547 97.0316 48.666 106.554C44.9052 106.935 32.8704 112.268 14.8182 130.552C-3.23398 148.837 9.55351 179.312 18.2038 192.264C18.2038 192.264 11.4342 199.12 56.5647 193.406C101.695 187.693 100.567 159.123 100.567 159.123C100.567 159.123 120.817 157.78 129.262 149.335C144.711 133.886 142.313 113.411 142.313 113.411C142.313 113.411 161.079 98.6013 164.878 84.841C169.23 69.0789 156.98 43.7015 156.98 43.7015C156.98 43.7015 164.878 32.2736 166.006 31.1308C167.135 29.988 172.776 28.8452 175.032 26.5597C177.289 24.2741 172.776 18.5608 163.75 11.7041C156.529 6.21868 142.313 18.5608 142.313 18.5608L132.158 28.8458Z" fill="#53A385"/>
<circle cx="90.3206" cy="122.559" r="23.165" fill="white"/>
<circle cx="45.7645" cy="158.193" r="25.8379" fill="white"/>
<circle cx="125.062" cy="72.6618" r="29.4017" fill="white"/>
</g>
<defs>
<clipPath id="clip0_1586_25709">
<rect width="205.979" height="205.979" fill="white" transform="translate(0.526367)"/>
</clipPath>
</defs>
</svg>
