<svg width="207" height="206" viewBox="0 0 207 206" fill="none" xmlns="http://www.w3.org/2000/svg">
<g clip-path="url(#clip0_1586_25728)">
<path d="M84.2433 192.597C90.9234 196.781 96.4473 194.341 98.3742 192.597C109.935 188.529 103.512 197.214 113.789 196.084C168.771 190.04 187.655 132.353 190.224 104.265C190.224 69.9779 176.575 26.6124 137.554 11.8648C98.5229 -2.88685 103.159 -4.98785 85.174 11.8648C68.9024 10.1214 38.7674 22.9062 23.8657 94.9667C5.2386 185.042 75.8932 187.367 84.2433 192.597Z" fill="#53A385"/>
<path d="M100.789 2.79243C116.039 16.8813 133.635 19.8164 130.116 51.3913C127.291 76.7328 133.048 163.64 109 193.579" stroke="white" stroke-width="7.44532" stroke-linecap="round"/>
<path d="M92.2139 29.858L74.6336 34.0157C71.5805 35.8646 65.2434 40.7359 64.3192 45.4301C63.1639 51.2978 57.2319 63.2166 55.5129 65.119C53.7938 67.0214 47.9856 74.2139 47.1742 79.7011C46.525 84.0909 48.1047 90.9094 48.9756 93.7699" stroke="white" stroke-width="7.44532" stroke-linecap="round"/>
<path d="M143.864 44.3056L156.742 49.7498C158.833 51.5552 163.039 56.0912 163.137 59.7925C163.261 64.4192 166.247 74.2805 167.313 75.9542C168.379 77.628 171.882 83.8668 171.792 88.1587C171.72 91.5923 169.633 96.5911 168.599 98.6613" stroke="white" stroke-width="7.44532" stroke-linecap="round"/>
<path d="M92.1757 181.033L74.342 178.151C71.1639 176.526 64.4928 172.123 63.2334 167.507C61.6592 161.738 54.8855 150.277 53.034 148.503C51.1826 146.729 44.8722 139.973 43.6683 134.558C42.7051 130.226 43.7903 123.312 44.4533 120.396" stroke="white" stroke-width="7.44532" stroke-linecap="round"/>
<path d="M132.691 177.702L147.139 173.066C149.678 171.328 154.977 166.866 155.856 162.919C156.956 157.985 162.114 147.718 163.567 146.027C165.02 144.336 169.95 137.989 170.759 133.393C171.406 129.716 170.301 124.181 169.668 121.873" stroke="white" stroke-width="7.44532" stroke-linecap="round"/>
<path d="M80.588 83.2386L79.4972 71.828C79.9848 69.6164 81.6178 64.8147 84.2493 63.3013C87.5387 61.4094 93.4883 55.4126 94.2803 53.9915C95.0724 52.5704 98.2078 47.6127 101.339 46.0051C103.844 44.7191 108.262 44.2762 110.159 44.2156" stroke="white" stroke-width="7.44532" stroke-linecap="round"/>
<path d="M135.968 142.272L149.274 135.365C151.066 133.339 154.309 128.376 152.947 124.732C151.244 120.177 150.891 110.138 151.503 108.366C152.115 106.594 153.831 100.046 152.006 95.8453C150.546 92.4848 146.038 87.8331 143.967 85.9274" stroke="white" stroke-width="7.44532" stroke-linecap="round"/>
</g>
<defs>
<clipPath id="clip0_1586_25728">
<rect width="205.979" height="205.979" fill="white" transform="translate(0.155273)"/>
</clipPath>
</defs>
</svg>
