<svg width="206" height="206" viewBox="0 0 206 206" fill="none" xmlns="http://www.w3.org/2000/svg">
<g clip-path="url(#clip0_1586_25645)">
<path d="M131.984 154.911C129.641 154.911 125.855 153.105 123.979 152.991C111.786 152.257 101.471 153.691 89.2238 154.2C85.9041 154.341 82.568 154.345 79.2594 154.546C76.4939 154.713 73.7559 155.07 71.0069 155.367C69.6571 155.515 68.3182 155.72 66.7215 155.937C66.3649 152.999 65.7942 150.286 65.7668 147.573C65.7064 141.926 66.0137 136.28 66.0301 130.633C66.0411 126.103 65.7119 121.57 65.7777 117.044C65.9204 106.568 66.3594 96.0915 66.3758 85.6151C66.3868 78.2622 66.107 70.9055 65.5802 63.5602C65.2071 58.3809 64.192 53.2282 63.4951 48.0602C62.9025 43.6333 62.4361 39.1988 61.7722 34.7756C61.2125 31.0175 60.4498 27.2784 59.7859 23.5278C59.4347 21.5404 59.122 19.5493 58.7324 17.5619C58.1343 14.484 57.5527 11.3984 56.8284 8.33185C56.3949 6.48128 56.6034 5.63769 58.8915 4.7751C63.0342 3.21333 67.2428 1.71995 71.5391 0.374772C74.535 -0.567613 76.6805 0.298774 77.4651 2.62054C78.8698 6.80807 79.9123 11.0602 81.531 15.2059C85.2183 24.6412 89.2457 34.0119 92.9714 43.4395C96.2362 51.7044 100.95 59.5855 105.833 67.4247C109.356 73.079 112.483 78.8778 116.61 84.3155C121.339 90.5512 126.936 96.4715 132.27 102.483C133.164 103.49 133.68 104.444 133.581 105.599C133.125 111.151 132.681 116.706 132.242 122.262C132.149 123.447 132.045 124.637 132.039 125.826C132.006 134.6 132.001 143.37 131.984 152.144C131.984 153.011 131.984 153.877 131.984 154.911Z" fill="#67B2F7"/>
<path d="M131.294 111.674C130.377 110.923 131.62 107.785 131.294 107.427C127.51 103.254 121.601 95.5195 117.806 91.3549C116.944 90.4128 116.679 89.5357 117.27 88.4182C121.496 80.4435 125.54 72.4231 129.832 64.4675C133.56 57.5568 137.289 50.6424 141.493 43.869C143.995 39.8417 147.415 36.0812 150.42 32.2026C150.917 31.558 151.42 30.9173 152.226 29.8838C150.646 30.3491 150.265 31.0394 149.735 31.5809C143.283 38.1636 138.151 45.2344 134.334 52.7095C128.445 64.2272 117.548 85.0399 117.176 87.3885C117.176 87.3885 116.729 88.0368 116.375 88.5479C115.856 88.2199 115.359 88.0445 115.182 87.7699C112.867 84.2573 110.139 80.8783 108.487 77.1446C107.498 74.9021 105.714 72.8312 104.366 70.6611C102.847 68.2126 101.438 65.726 99.9357 63.2737C99.3005 62.2364 99.2839 61.3134 100.19 60.3104C107.548 52.1412 114.84 43.9453 122.181 35.7723C127.595 29.7465 126.464 43.0182 126.464 43.0182C126.464 43.0182 118.817 45.2722 121.634 43.0182C119.894 43.1021 117.511 55.2906 116.804 55.7597C109.91 60.3325 114.63 54.4578 109.559 60.0069C100.627 69.7779 111.047 54.3992 102.314 64.2541C101.772 64.8643 98.5297 61.8003 97.4838 60.0069C96.1141 57.5531 96.4722 57.6712 97.5383 56.1381C99.6374 53.1137 101.797 50.1046 103.764 47.0383C109.133 38.667 116.469 31.1309 124.181 23.7397C129.544 18.5987 134.814 13.4081 140.151 8.25563C140.836 7.59203 141.603 6.95131 142.449 6.37923C144.476 4.99482 146.57 4.8804 148.812 6.07794C150.005 6.71485 151.011 7.51194 152.138 8.20605C156.568 10.9329 160.877 13.7666 165.495 16.3371C172.256 20.0975 170.168 21.1845 166.644 24.5673C162.865 28.1943 158.949 31.7564 155.303 35.4443C151.011 39.7921 148.431 44.7386 145.68 49.5936C142.377 55.4173 139.178 61.2753 137.063 67.385C134.903 73.6206 133.229 79.902 132.677 86.3092C132.185 92.0375 134.184 97.4512 133.709 103.18C133.676 103.607 133.709 111.674 131.294 111.674Z" fill="#67B2F7"/>
<path d="M97.4841 56.459C96.9546 55.6902 92.8863 56.9703 92.654 56.459C89.7204 49.9147 87.948 39.7197 85.4087 33.0996C84.5659 30.903 88.6634 27.3947 88.7175 25.0391C88.7337 24.2324 89.0686 23.4257 89.074 22.619C89.1227 16.1808 90.4517 9.82203 91.5214 3.44815C91.8942 1.24778 93.3799 0.327488 96.5782 0.376722C104.59 0.505487 112.602 0.679699 120.609 0.891783C123.98 0.982676 124.801 1.74769 124.202 4.18287C122.435 11.3256 119.836 18.3243 116.773 25.2436C115.995 27.0046 115.016 33.4319 114.389 35.2232C112.498 40.6162 110.38 47.2544 107.144 52.2119C105.696 54.4274 103.94 54.3041 102.314 56.459C101.985 56.8946 98.1486 55.7281 97.4841 56.459Z" fill="#67B2F7"/>
<path d="M133.273 175.123C133.191 171.402 132.762 167.681 132.362 163.967C132.202 162.513 131.703 161.082 131.357 159.64C127.975 159.441 124.852 158.743 121.602 159.082C121.596 159.048 121.591 159.014 121.585 158.979C120.323 158.907 118.709 158.827 116.837 158.754C115.426 158.552 114.065 158.418 112.676 158.628C112.182 158.617 111.677 158.605 111.161 158.598C109.316 158.567 108.136 158.563 106.983 158.571C103.31 158.411 97.5407 158.384 92.7702 158.475C88.6091 158.365 86.9347 158.266 83.7178 158.598C83.6793 158.601 83.6299 158.609 83.5915 158.613C82.1807 158.609 81.1596 158.548 80.166 158.628C76.8777 158.888 73.6058 159.353 70.312 159.46C66.6779 159.578 66.1619 159.548 65.5086 162.819C65.3933 163.406 65.4262 164.009 65.4262 164.609C65.4262 175.131 65.4207 185.657 65.4537 196.179C65.4537 197.213 65.6513 198.262 65.9093 199.281C66.4638 201.476 68.3083 202.98 71.4594 203.434C74.8081 203.915 78.2171 204.186 81.5988 204.556C82.9273 204.701 84.2503 204.854 85.5897 205.006C87.0171 205.098 88.4499 205.193 89.8772 205.285C91.6558 204.957 93.3796 205.041 94.999 205.64C96.5526 205.773 98.2873 205.865 100.176 205.869C101.422 205.869 102.591 205.834 103.684 205.773C105.424 205.842 107.17 205.911 108.91 205.979C109.525 205.915 110.019 205.831 110.513 205.819C113.812 205.747 117.111 205.644 120.411 205.64C125.005 205.636 131.423 203.514 132.268 200.32C132.713 198.64 133.256 196.942 133.284 195.247C133.394 188.538 133.421 181.829 133.273 175.123Z" fill="#67B2F7"/>
<path d="M111.974 77.6949L148.2 20.3581L160.275 24.6053L133.709 62.8298L119.219 101.054L111.974 77.6949Z" fill="#67B2F7"/>
</g>
<defs>
<clipPath id="clip0_1586_25645">
<rect width="205.979" height="205.979" fill="white"/>
</clipPath>
</defs>
</svg>
