<svg width="207" height="206" viewBox="0 0 207 206" fill="none" xmlns="http://www.w3.org/2000/svg">
<g clip-path="url(#clip0_1586_25636)">
<path d="M124.329 41.9881C126.605 47.6143 130.59 59.6377 128.326 62.7218" stroke="#67B2F7" stroke-width="3.08969" stroke-linecap="round"/>
<path d="M109.506 73.677C110.985 79.4614 113.311 91.6336 110.776 94.0476" stroke="#67B2F7" stroke-width="3.08969" stroke-linecap="round"/>
<path d="M70.0489 41.9879C66.6179 49.8928 60.4851 67.2404 63.4015 73.3912" stroke="#67B2F7" stroke-width="3.08969" stroke-linecap="round"/>
<path d="M115.479 168.744C116.085 173.658 116.264 184.125 112.136 186.692" stroke="#67B2F7" stroke-width="3.08969" stroke-linecap="round"/>
<path d="M167.985 129.209C169.783 123.296 176.469 102.629 176.469 102.629L175.586 84.7396L159.657 64.9511C152.081 61.6472 144.528 58.2628 136.915 55.0165C135.85 54.556 134.772 54.1071 133.695 53.6581C131.323 52.7948 128.963 51.9429 126.578 51.1025C113.954 54.0265 101.536 57.3994 89.1051 60.9911C61.3635 71.2364 59.4039 74.9035 31.6744 85.1719L45.302 124.57L61.8114 163.042L46.5244 188.644C46.5244 188.644 58.2295 199.344 75.7064 204.415C93.1833 209.486 131.262 200.581 131.262 200.581L136.467 164.619C136.467 164.619 166.187 135.122 167.985 129.209ZM72.2447 121.968L58.737 97.5291L84.651 74.713L82.7785 136.276L72.2447 121.968ZM101.33 126.101L103.194 109.156L117.573 69.1989L130.996 76.4512L101.33 126.101ZM143.281 126.32L125.365 127.759L142.4 68.1372L159.452 99.2558L143.281 126.32Z" fill="#67B2F7"/>
<path d="M200.031 101.702C203.896 101.654 207.997 99.9479 209.797 96.4877C211.597 93.0275 209.987 87.8707 206.226 86.9889C209.096 85.8771 210.754 82.2827 209.74 79.3496C208.727 76.4166 205.222 74.6434 202.295 75.5827C206.245 74.8734 207.761 69.2183 205.525 65.8539C203.289 62.4896 198.771 61.3681 194.792 61.9145C196.014 54.7353 188.455 47.6041 181.464 49.3389C184.239 47.6903 183.434 42.8786 180.583 41.3546C177.732 39.8402 174.113 40.9712 171.622 43.032C166.364 39.3034 157.715 44.048 157.943 50.5371L157.981 51.6489C155.849 51.2655 154.03 49.9524 152.107 48.946C150.194 47.9395 147.873 47.2206 145.903 48.1121C143.932 49.0035 143.032 52.1282 144.785 53.403C144.34 53.0675 143.857 52.8471 143.355 52.7129C142.597 51.6489 141.564 50.8534 140.266 50.5275C143.771 49.7703 146.509 46.2813 146.433 42.6582C146.357 39.0255 143.497 35.6611 139.954 35.0477C143.544 28.8078 137.936 19.5391 130.812 19.9417C131.892 14.1427 123.888 9.16811 119.265 12.7721C119.028 9.1106 117.626 5.21908 114.5 3.35958C111.374 1.50009 106.429 2.8995 105.728 6.50347C103.341 2.71739 99.2016 -0.301895 94.7777 0.0239962C90.3444 0.349887 86.3469 5.06572 87.7868 9.31188C84.9733 7.14567 80.5021 7.7016 78.2855 10.4813C76.0688 13.2609 76.4856 17.8042 79.1759 20.1238C76.0972 16.654 69.722 18.5902 67.8369 22.8459C65.9423 27.1017 67.6096 32.2393 70.5462 35.8336C65.4119 37.9423 62.7121 43.9234 63.2426 49.406C62.2669 49.3294 61.2817 49.3869 60.2965 49.6265C63.091 47.9587 62.2858 43.1087 59.4155 41.5847C56.5453 40.0606 52.8982 41.1917 50.3879 43.2716C45.0831 39.5047 36.3681 44.2972 36.5954 50.8438L36.6333 51.9557C34.4924 51.5723 32.6452 50.2399 30.7128 49.2335C28.7803 48.2175 26.4405 47.4986 24.4512 48.3996C22.4619 49.3006 21.5525 52.4541 23.3239 53.7385C19.6485 50.9684 13.529 55.7321 15.2436 60.0358C12.0039 61.5407 8.52733 63.2756 6.93589 66.4961C5.34445 69.7263 7.09693 74.7105 10.6587 74.7297C7.39059 75.7457 5.34445 79.7139 6.39594 83.0015C7.44743 86.2988 11.3881 88.3021 14.6279 87.1902C13.1311 89.5673 11.5965 92.3086 12.2596 95.0499C12.9227 97.7912 17.1192 99.3536 18.5117 96.9094C18.8812 100.36 19.3927 104.002 21.562 106.686C23.7313 109.37 28.1456 110.491 30.5991 108.057C29.5287 111.057 30.8264 114.728 33.5357 116.357C36.2449 117.987 40.053 117.383 42.137 115.006C45.0736 120.604 54.4897 120.671 57.502 115.111C61.2722 118.61 68.6421 114.881 68.1306 109.734C70.9345 111.258 74.449 111.996 77.2624 110.501C80.0759 109.006 81.3357 104.635 79.0149 102.43C82.9082 102.382 87.0479 100.667 88.8572 97.1778C89.5013 95.9413 89.7003 94.494 89.5392 93.0946C91.1117 92.9316 92.5611 91.9444 92.6653 90.3724C92.2295 95.6346 100.471 98.7593 103.559 94.494C106.95 96.7561 110.702 99.1236 114.747 98.7402C118.791 98.3568 122.505 93.6409 120.383 90.1424C123.319 92.7303 128.34 92.3469 130.86 89.3372C131.532 88.5321 131.987 87.564 132.243 86.548C133.512 86.9697 134.886 87.0272 136.155 86.5959C134.668 88.9538 133.152 91.676 133.806 94.3886C134.469 97.1011 138.628 98.6539 140.011 96.2289C140.371 99.6507 140.882 103.264 143.032 105.929C145.183 108.594 149.569 109.696 151.994 107.29C150.933 110.261 152.221 113.904 154.911 115.514C157.592 117.124 161.372 116.53 163.446 114.172C166.355 119.722 175.695 119.789 178.679 114.277C182.421 117.747 189.724 114.047 189.222 108.939C192.007 110.443 195.493 111.182 198.288 109.696C201.082 108.21 202.333 103.887 200.031 101.702Z" fill="#67B2F7"/>
</g>
<defs>
<clipPath id="clip0_1586_25636">
<rect width="205.979" height="205.979" fill="white" transform="translate(0.969727)"/>
</clipPath>
</defs>
</svg>
