<svg width="207" height="206" viewBox="0 0 207 206" fill="none" xmlns="http://www.w3.org/2000/svg">
<g clip-path="url(#clip0_1586_25719)">
<path d="M132.185 44.3044C132.185 71.0755 114.5 82.9737 107.018 86.9398C96.1357 82.4779 83.8927 66.4823 83.8927 44.3044C83.8927 30.9189 97.496 15.0546 107.018 5.13936C107.018 5.13936 128.104 19.5164 132.185 44.3044Z" fill="#53A385"/>
<path d="M89.1335 79.7586C113.091 103.142 110.474 123.327 108.412 130.933C96.2563 133.061 72.7592 125.868 52.9126 106.496C40.9341 94.8041 36.9404 73.4152 35.2096 59.4823C35.2096 59.4823 63.8902 60.3663 89.1335 79.7586Z" fill="#53A385"/>
<path d="M124.977 79.7586C101.02 103.142 103.636 123.327 105.699 130.933C117.854 133.061 141.351 125.868 161.197 106.496C173.176 94.8041 177.17 73.4152 178.901 59.4823C178.901 59.4823 150.22 60.3663 124.977 79.7586Z" fill="#53A385"/>
<path d="M87.3841 138.554C114.729 165.076 111.743 187.969 109.388 196.597C95.5142 199.011 68.6943 190.852 46.0411 168.88C32.3687 155.619 27.8103 131.359 25.8347 115.556C25.8347 115.556 58.571 116.559 87.3841 138.554Z" fill="#53A385"/>
<path d="M128.294 138.554C100.95 165.076 103.936 187.969 106.29 196.597C120.164 199.011 146.984 190.852 169.637 168.88C183.31 155.619 187.868 131.359 189.844 115.556C189.844 115.556 157.107 116.559 128.294 138.554Z" fill="#53A385"/>
</g>
<defs>
<clipPath id="clip0_1586_25719">
<rect width="205.979" height="205.979" fill="white" transform="translate(0.888672)"/>
</clipPath>
</defs>
</svg>
